<svg xmlns="http://www.w3.org/2000/svg" viewBox="0 0 1242 2688" role="img" aria-label="MYLIFTCOACH launch screen">
<defs>
  <radialGradient id="bg" cx="50%" cy="38%" r="75%"><stop offset="0" stop-color="#251039"/><stop offset=".5" stop-color="#0b0711"/><stop offset="1" stop-color="#030205"/></radialGradient>
  <linearGradient id="metal" x1="0" y1="0" x2="1" y2="1"><stop offset="0" stop-color="#fff"/><stop offset=".35" stop-color="#bbb6c5"/><stop offset=".68" stop-color="#5d5866"/><stop offset="1" stop-color="#eeeaf4"/></linearGradient>
  <linearGradient id="purple" x1="0" y1="0" x2="1" y2="1"><stop offset="0" stop-color="#d98eff"/><stop offset=".5" stop-color="#9c43ff"/><stop offset="1" stop-color="#5b16c8"/></linearGradient>
  <filter id="glow"><feGaussianBlur stdDeviation="18" result="b"/><feMerge><feMergeNode in="b"/><feMergeNode in="SourceGraphic"/></feMerge></filter>
</defs>
<rect width="1242" height="2688" fill="url(#bg)"/>
<g opacity=".16" fill="#8b35ef"><circle cx="170" cy="520" r="210"/><circle cx="1090" cy="820" r="250"/><circle cx="620" cy="2200" r="330"/></g>
<!-- MYLIFTCOACH M + dumbbell mark -->
<g transform="translate(621 900)" filter="url(#glow)">
  <g fill="url(#metal)">
    <rect x="-420" y="-120" width="55" height="240" rx="25"/><rect x="-350" y="-175" width="78" height="350" rx="28"/>
    <rect x="272" y="-175" width="78" height="350" rx="28"/><rect x="365" y="-120" width="55" height="240" rx="25"/>
  </g>
  <rect x="-272" y="-20" width="544" height="40" rx="20" fill="url(#purple)"/>
  <path d="M-245-220h110L0-55l135-165h110L0 105z" fill="url(#purple)"/>
</g>
<text x="621" y="1510" text-anchor="middle" fill="#f7f4fb" font-family="Arial,Helvetica,sans-serif" font-size="96" font-weight="600" letter-spacing="8">MY<tspan fill="#a744ff" font-weight="800">LIFT</tspan>COACH</text>
<g transform="translate(0 2140)" opacity=".65"><rect x="160" y="220" width="922" height="40" rx="20" fill="#17131d"/><rect x="212" y="140" width="230" height="80" rx="16" fill="#21192a"/><circle cx="300" cy="125" r="45" fill="#32213f"/><circle cx="360" cy="125" r="45" fill="#32213f"/><rect x="760" y="90" width="90" height="130" rx="18" fill="#261b31"/><circle cx="805" cy="70" r="52" fill="#342041"/><rect x="470" y="186" width="292" height="18" rx="9" fill="#8e39f4"/></g>
</svg>